<?xml version="1.0" encoding="UTF-8" standalone="no"?>
<svg
   xmlns:dc="http://purl.org/dc/elements/1.1/"
   xmlns:cc="http://creativecommons.org/ns#"
   xmlns:rdf="http://www.w3.org/1999/02/22-rdf-syntax-ns#"
   xmlns:svg="http://www.w3.org/2000/svg"
   xmlns="http://www.w3.org/2000/svg"
   xmlns:sodipodi="http://sodipodi.sourceforge.net/DTD/sodipodi-0.dtd"
   xmlns:inkscape="http://www.inkscape.org/namespaces/inkscape"
   width="512"
   height="512"
   id="svg2"
   sodipodi:version="0.32"
   inkscape:version="0.47 r22583"
   inkscape:output_extension="org.inkscape.output.svg.inkscape"
   sodipodi:docname="Logo.svg"
   version="1.0"
   inkscape:export-filename="/home/joselopes/Documentos/Projects/gnusplit/pics/Logo-128.png"
   inkscape:export-xdpi="22.5"
   inkscape:export-ydpi="22.5">
  <metadata
     id="metadata39">
    <rdf:RDF>
      <cc:Work
         rdf:about="">
        <dc:format>image/svg+xml</dc:format>
        <dc:type
           rdf:resource="http://purl.org/dc/dcmitype/StillImage" />
        <dc:title>Swiss Army Knife</dc:title>
        <dc:date>20080128</dc:date>
        <dc:creator>
          <cc:Agent>
            <dc:title>Klaus Kellner</dc:title>
          </cc:Agent>
        </dc:creator>
        <dc:rights>
          <cc:Agent>
            <dc:title>Klaus Kellner</dc:title>
          </cc:Agent>
        </dc:rights>
        <dc:publisher>
          <cc:Agent>
            <dc:title>Klaus Kellner</dc:title>
          </cc:Agent>
        </dc:publisher>
        <dc:contributor>
          <cc:Agent>
            <dc:title>Klaus Kellner</dc:title>
          </cc:Agent>
        </dc:contributor>
        <dc:description>Schweizer Offiziersmesser, Swiss Army Knife</dc:description>
        <cc:license
           rdf:resource="http://web.resource.org/cc/PublicDomain" />
      </cc:Work>
      <cc:License
         rdf:about="http://web.resource.org/cc/PublicDomain">
        <cc:permits
           rdf:resource="http://web.resource.org/cc/Reproduction" />
        <cc:permits
           rdf:resource="http://web.resource.org/cc/Distribution" />
        <cc:permits
           rdf:resource="http://web.resource.org/cc/DerivativeWorks" />
      </cc:License>
    </rdf:RDF>
  </metadata>
  <defs
     id="defs37">
    <inkscape:perspective
       sodipodi:type="inkscape:persp3d"
       inkscape:vp_x="0 : 267.96646 : 1"
       inkscape:vp_y="0 : 1000 : 0"
       inkscape:vp_z="495.2536 : 267.96646 : 1"
       inkscape:persp3d-origin="247.6268 : 178.64431 : 1"
       id="perspective22" />
  </defs>
  <sodipodi:namedview
     inkscape:window-height="672"
     inkscape:window-width="1278"
     inkscape:pageshadow="2"
     inkscape:pageopacity="0.0"
     guidetolerance="10.0"
     gridtolerance="10.0"
     objecttolerance="10.0"
     borderopacity="1.0"
     bordercolor="#666666"
     pagecolor="#ffffff"
     id="base"
     inkscape:zoom="0.8984375"
     inkscape:cx="256"
     inkscape:cy="256"
     inkscape:window-x="0"
     inkscape:window-y="24"
     inkscape:current-layer="svg2"
     showgrid="false"
     inkscape:window-maximized="0" />
  <path
     style="fill:#b2b2b2;fill-opacity:1;fill-rule:evenodd;stroke:none"
     d="M 105.06985,409.98512 C 95.792909,413.96097 85.853332,421.24998 77.239026,424.56318 31.516963,319.86627 30.191685,256.91561 57.359868,230.41005 c 5.301109,1.98792 13.252772,-1.9879 17.891243,1.32528 7.951666,13.91542 9.858592,30.97588 14.497063,50.85503 0.662639,5.3011 -26.201615,-2.0751 -25.538977,3.22602 -3.927238,21.13345 -9.606563,32.08642 3.765267,46.16176 9.538673,10.04052 35.770106,-31.99103 33.782196,-28.67782 19.87916,29.15611 9.93958,98.0705 3.31319,106.6848 z"
     id="path4"
     sodipodi:nodetypes="ccccccscc" />
  <path
     style="fill:#cccccc;fill-opacity:1;fill-rule:evenodd;stroke:none"
     d="m 58.685148,231.73533 c 9.276938,-0.66264 11.264856,-3.31318 15.903325,1.98791 3.975832,9.27695 9.93958,16.56598 15.240688,26.50555 -16.95567,-7.19195 -33.229002,1.28589 -52.095214,16.46891 2.650554,0.66263 1.734679,-27.07112 20.951201,-44.96237 z"
     id="path6"
     sodipodi:nodetypes="ccccc" />
  <path
     style="fill:#5c3566;fill-opacity:1;fill-rule:evenodd;stroke:none"
     d="M 441.02762,350.34765 C 337.656,413.96097 232.29647,461.00833 125.61165,492.81495 108.38304,486.85119 69.950004,448.41817 88.503882,428.53902 193.86343,373.53999 358.1978,284.74644 391.99236,277.4574 c 32.46932,-15.24069 57.64957,49.03527 49.03526,72.89025 z"
     id="path8" />
  <path
     style="fill:#b2b2b2;fill-opacity:1;fill-rule:evenodd;stroke:none"
     d="m 416.51,271.49365 c -8.6143,3.31321 -14.57805,-4.63846 -23.19236,-1.32527 C 358.1978,179.38689 332.3549,96.557063 321.09005,20.353622 380.06487,42.883332 416.51,237.6991 416.51,271.49365 z"
     id="path10" />
  <path
     style="fill:#cccccc;fill-opacity:1;fill-rule:evenodd;stroke:none"
     d="M 324.40323,25.654731 C 346.93294,100.53289 370.78793,189.32647 393.98026,264.20464 356.20988,296.0113 262.77782,54.148191 324.40323,25.654731 z"
     id="path14" />
  <path
     style="fill:#000000;fill-opacity:1;fill-rule:evenodd;stroke:none"
     d="m 421.14846,270.16838 c 11.92752,-3.97583 -31.14401,-125.2387 -43.73413,-182.888257 l -5.30112,13.915407 c 5.30112,42.40888 36.44513,101.38371 49.03525,168.97285 z"
     id="path16" />
  <path
     style="fill:#000000;fill-opacity:1;fill-rule:evenodd;stroke:none"
     d="M 392.655,272.15628 C 349.58352,256.91561 282.657,78.003182 321.75269,26.317369 336.99337,21.678898 360.8054,51.2195 372.73289,80.375599 374.05819,63.146996 339.64393,10.414042 320.42741,17.040428 280.00644,45.533888 305.84936,248.96395 392.655,272.15628 z"
     id="path18"
     sodipodi:nodetypes="ccccc" />
  <path
     style="fill:#000000;fill-opacity:1;fill-rule:evenodd;stroke:none"
     d="m 338.98131,58.78666 c 9.93957,53.01109 24.51759,78.19136 27.83079,90.78149 -9.27694,-31.14401 -17.22858,-62.288027 -20.5418,-86.805655 -7.28899,-14.578052 -7.95166,-13.252774 -7.28899,-3.975835 z"
     id="path20" />
  <path
     style="fill:#000000;fill-opacity:1;fill-rule:evenodd;stroke:none"
     d="m 107.72041,392.75652 c 8.6143,-16.56598 7.28902,-60.96273 -5.96375,-84.1551 -7.951667,15.90333 -18.433782,33.05335 -33.131935,21.86709 -9.164096,-6.97449 -3.975831,-30.4814 -5.30111,-47.71001 0,-2.65054 20.541797,1.3253 29.818738,-1.9879 -3.975831,-12.59014 -16.565964,-50.36055 -25.180267,-49.69791 l -10.602218,1.32528 c -18.55388,21.86707 -16.565964,27.83082 -17.891242,34.45722 -5.963747,35.11985 23.192351,121.9255 38.43304,153.06951 l -4.63847,6.6264 C 58.022509,394.74443 27.541131,301.31239 36.155433,263.54199 c 1.987916,-6.62638 0,-13.25277 22.529715,-37.10776 l 13.252772,-2.65056 c 9.276939,-1.32526 24.517628,47.04734 28.49346,60.30013 -11.264858,3.97582 -33.79457,1.98792 -33.131931,4.63846 0.662637,17.89125 -3.778772,30.11246 5.963747,37.10777 16.902195,12.1361 17.228605,-22.52971 29.156094,-27.83083 15.90333,20.54179 23.19236,78.19134 5.30112,94.75732 z"
     id="path22"
     sodipodi:nodetypes="ccsccccccccccccscc" />
  <path
     style="fill:#000000;fill-opacity:1;fill-rule:evenodd;stroke:none"
     d="m 57.359868,339.08281 c -10.602217,-30.48139 -8.614301,-36.44513 -9.27694,-43.73415 4.638471,12.59012 5.963749,23.85497 14.578049,38.43304 0,7.95167 -3.313192,10.60222 -5.301109,5.30111 z"
     id="path24" />
  <path
     style="fill:#b2b2b2;fill-opacity:1;fill-rule:evenodd;stroke:none"
     d="m 326.39115,207.88034 c -2.65054,5.96376 8.66361,28.91718 28.54275,51.44689 -59.63748,-28.49346 -78.90328,-48.13368 -121.31216,-80.60298 40.42096,-17.2286 76.20343,18.55388 92.76941,29.15609 z"
     id="path26"
     sodipodi:nodetypes="cccc" />
  <path
     style="fill:#cccccc;fill-opacity:1;fill-rule:evenodd;stroke:none"
     d="m 238.26021,179.38689 c 46.38471,26.50554 67.58915,42.40888 113.97386,68.91442 35.11984,57.64956 -131.20246,-25.18028 -113.97386,-68.91442 z"
     id="path28" />
  <path
     style="fill:#000000;fill-opacity:1;fill-rule:evenodd;stroke:none"
     d="M 388.67917,270.16838 C 360.18571,282.7585 242.23604,225.10895 236.93494,181.3748 c 5.3011,-9.93958 34.4572,-5.3011 54.33636,3.3132 -7.28902,-9.27694 -53.01109,-19.21652 -59.63747,-7.28902 -6.6264,33.13193 103.37162,121.9255 157.04534,92.7694 z"
     id="path30" />
  <path
     style="fill:#000000;fill-opacity:1;fill-rule:evenodd;stroke:none"
     d="m 257.47673,191.31439 c 31.80665,20.5418 52.34844,25.84289 60.30012,29.81874 -20.5418,-10.60222 -40.42097,-21.86708 -54.33639,-31.80666 -11.26485,-3.3132 -10.60221,-1.98792 -5.96373,1.98792 z"
     id="path32" />
  <path
     style="fill:#000000;fill-opacity:1;fill-rule:evenodd;stroke:none"
     d="m 434.40126,345.04655 c 2.65054,-48.37261 -15.24071,-60.30011 -40.421,-63.61333 -52.34842,17.89126 -249.15209,106.02219 -298.187351,143.7926 -12.590132,33.13193 7.951661,56.98691 34.457201,60.96274 46.3847,-5.3011 292.22363,-127.2266 304.15115,-141.14201 z m 39.7583,-49.69789 c 9.82911,16.03683 -4.69219,31.28278 -21.20443,25.84291 1.32528,7.95164 1.32528,17.22859 0,25.84289 -29.15609,25.18026 -280.95878,147.76839 -318.72918,147.76839 -21.20444,6.62641 -79.516636,-33.13189 -49.697897,-69.57703 56.986917,-41.74625 237.224637,-123.91343 302.163217,-152.4069 23.19233,-11.26485 45.0594,0 57.64956,22.52974 7.33365,-11.81937 21.03786,-12.23841 29.81873,0 z m -11.26485,13.25276 c -10.76961,5.84827 -19.8667,-6.55386 -11.92748,-15.24068 9.00504,-6.23643 18.56277,8.2622 11.92748,15.24068 z"
     id="path34"
     sodipodi:nodetypes="cccccccccccccccc" />
  <text
     xml:space="preserve"
     style="font-size:72.60024260999998091px;font-style:normal;font-variant:normal;font-weight:normal;font-stretch:normal;text-align:center;line-height:100%;writing-mode:lr-tb;text-anchor:middle;fill:#eeeeec;fill-opacity:1;stroke:none;font-family:Motor Oil 1937 M54;-inkscape-font-specification:Motor Oil 1937 M54"
     x="84.614342"
     y="484.69427"
     id="text2846"
     sodipodi:linespacing="100%"
     transform="matrix(0.90476222,-0.42591704,0.42591704,0.90476222,0,0)"><tspan
       sodipodi:role="line"
       id="tspan2848"
       x="84.614342"
       y="484.69427">GNUSplit</tspan></text>
  <path
     style="fill:#ffffff;fill-opacity:1;fill-rule:evenodd;stroke:none;opacity:0.35"
     d="m 435.72653,345.04655 c -80.84192,51.02317 -198.12895,102.70898 -300.83794,140.47937 -25.84291,-5.3011 -23.85499,-14.57801 -16.56597,-21.86705 123.44635,-75.63929 134.80465,-39.17001 251.21659,-119.37039 34.47454,-15.42603 1.42235,22.82235 66.18732,0.75807 z"
     id="path12"
     sodipodi:nodetypes="ccccc" />
</svg>
